
<svg xmlns="http://www.w3.org/2000/svg" version="1.1" xmlns:xlink="http://www.w3.org/1999/xlink" preserveAspectRatio="none" x="0px" y="0px" width="600px" height="194px" viewBox="0 0 600 194">
<defs>
<g id="Layer0_0_FILL">
<path fill="#337FBA" stroke="none" d="
M 408.25 220.1
L 408.25 219.95
Q 408.25 216.05 405.7 213.35 405.55 213.2 404.8 212.6
L 315.4 150.2
Q 315.1 150.05 314.95 150.05 314.65 150.05 314.35 150.2 314.2 150.5 314.2 150.8
L 314.2 177.2
Q 312.4 176.6 310.3 176.6 305.05 176.6 301.3 180.2 297.7 183.95 297.7 189.2 297.7 194.45 301.3 198.05 305.05 201.8 310.3 201.8 312.4 201.8 314.2 201.2
L 314.2 228.5
Q 314.2 228.8 314.8 229.1
L 333.55 229.1
Q 333.85 229.1 334 228.95 334 228.8 334.15 228.65 334.9 224.9 337.15 221.6 337.6 220.85 338.65 219.6 338.95 219.2 339.7 218.45 345.7 212.45 354.25 212.45 362.8 212.45 368.8 218.45 369.55 219.2 370.3 220.1 373.45 224 374.5 228.65 374.5 228.8 374.65 228.95 374.8 229.1 375.1 229.1
L 399.25 229.1
Q 399.55 229.1 399.7 229.1 403.15 228.95 405.7 226.4 406.3 225.8 406.75 225.2 408.25 222.95 408.25 220.1
M 397.9 219.35
Q 397.9 219.65 397.75 219.95 397.45 220.1 397.3 220.1
L 381.1 220.1
Q 379 215.75 375.25 212 366.7 203.45 354.1 203.45 341.65 203.45 332.8 212 329.35 215.75 327.4 220.1
L 323.2 220.1 323.2 166.85 397.6 218.75 397.75 218.9
Q 397.9 219.2 397.9 219.35
M 366.55 236.9
Q 367.15 234.95 367.15 232.85 367.15 227.6 363.4 223.85 359.8 220.25 354.55 220.25 349.3 220.25 345.55 223.85 341.95 227.6 341.95 232.85 341.95 234.95 342.55 236.9
L 314.8 236.9
Q 314.65 236.9 314.5 237.05 314.2 237.35 314.2 237.5
L 314.2 266
Q 314.2 266.3 314.5 266.45 314.65 266.6 314.8 266.6 320.5 267.8 324.85 272.15 331 278.15 331 286.7 331 295.25 324.85 301.25 320.5 305.6 314.5 306.95 314.2 307.1 314.2 307.25
L 314.2 340.45
Q 314.69453125 341.002734375 314.8 341
L 399.55 341
Q 399.7 341 399.85 340.7 400.15 340.7 400.15 340.4
L 400.15 317.15
Q 400.15 316.85 399.85 316.7 399.7 316.55 399.55 316.55
L 342.1 316.55 342.1 300.65 387.7 300.65
Q 387.85 300.65 388.15 300.5 388.3 300.35 388.3 300.05
L 388.3 277.7
Q 388.3 277.4 388.15 277.4 387.85 277.25 387.7 277.25
L 342.1 277.25 342.1 261.5 398.35 261.5
Q 398.65 261.5 398.8 261.2 398.95 261.05 398.95 260.75
L 398.95 237.5
Q 398.95 237.35 398.8 237.05 398.65 236.9 398.35 236.9
L 366.55 236.9
M 286.6 237.05
Q 286.45 237.2 286.3 237.5 285.4 242.15 282.4 245.9 281.65 246.8 280.75 247.55 274.75 253.4 266.2 253.4 257.65 253.4 251.65 247.55 250.75 246.8 250.15 245.9 247 242.15 246.1 237.5 246.1 237.2 245.95 237.05 245.65 236.9 245.5 236.9
L 222.1 236.9
Q 221.95 236.9 221.65 237.05 221.5 237.35 221.5 237.5
L 221.5 340.4
Q 221.5 340.55 221.65 340.85 221.95 341 222.1 341
L 305.8 341
Q 306.245703125 340.595703125 306.4 340.4
L 306.4 298.7
Q 308.2 299.3 310.3 299.3 312.85 299.3 315.1 298.4 317.35 297.5 319.15 295.7 322.9 291.95 322.9 286.7 322.9 281.45 319.15 277.55 317.35 275.75 315.1 274.85 312.85 273.95 310.3 273.95 308.2 273.95 306.4 274.55
L 306.4 237.5
Q 306.4 237.35 306.25 237.05 305.95 236.9 305.8 236.9
L 286.9 236.9
Q 286.75 236.9 286.6 237.05
M 293.2 245.9
L 297.4 245.9 297.4 332 230.5 332 230.5 245.9 239.5 245.9
Q 241.6 250.25 245.35 253.85 254.2 262.7 266.2 262.7 278.65 262.7 287.5 253.85 291.1 250.25 293.2 245.9
M 305.35 150.05
L 305.05 150.2 215.8 212.6
Q 215.05 213.2 214.9 213.35 212.35 216.05 212.35 219.95
L 212.35 220.1
Q 212.35 222.8 213.85 225.05 214.3 225.8 214.9 226.4 217.45 228.95 220.9 229.1 221.05 229.1 221.35 229.1
L 254.2 229.1
Q 253.6 230.9 253.6 233 253.6 238.25 257.35 241.85 261.1 245.6 266.2 245.6 271.45 245.6 275.2 241.85 278.8 238.25 278.8 233 278.8 230.9 278.2 229.1
L 305.8 229.1
Q 306.4 228.8 306.4 228.5
L 306.4 209.9
Q 306.4 209.6 306.25 209.45
L 305.5 209.15
Q 300.85 208.1 297.4 205.25 296.5 204.5 295.75 203.75 289.75 197.75 289.75 189.2 289.75 180.65 295.75 174.65 296.5 173.9 297.4 173.15 301 170.45 305.65 169.25
L 306.1 169.1
Q 306.4 168.8 306.4 168.65
L 306.4 150.8
Q 306.4 150.5 306.1 150.2 305.95 150.05 305.65 150.05 305.5 150.05 305.35 150.05
M 283.15 176.6
Q 281.05 180.65 280.6 185.45 280.3 187.55 280.3 189.65 280.3 191.45 280.6 193.25 281.5 203.15 288.55 210.5 292.6 214.55 297.4 216.8
L 297.4 220.1 223 220.1
Q 222.7 220.1 222.4 219.95 222.25 219.65 222.25 219.35 222.25 219.2 222.4 219.05
L 222.7 218.75
Q 222.7 218.6 226.75 215.9
L 283.15 176.6
M 583.3 260.45
L 614.8 260.45 614.8 236.9 524.8 236.9 524.8 260.45 556.3 260.45 556.3 341.3 583.3 341.3 583.3 260.45
M 445.9 236.9
L 414.55 236.9 448.75 285.2 408.55 341.3 439.75 341.3 464.05 306.65 488.65 341.3 520.15 341.3 480.1 285.2 514.15 236.9 483.25 236.9 464.5 263.75 445.9 236.9
M 907.15 250.1
L 943 250.1 943 234.5 854.8 234.5 854.8 250.1 890.2 250.1 890.2 342.05 907.15 342.05 907.15 250.1
M 709 245.9
L 708.85 245.9
Q 703.75 241.4 697 239.15 690.1 236.9 681.55 236.9
L 632.35 236.9 632.35 341.3 659.2 341.3 659.2 308.45 670 308.45 674.95 307.85 699.7 341.3 730.6 341.3 702.7 303.65
Q 706 301.85 708.85 299.6 710.35 298.1 711.85 296.6 712.9 295.4 713.8 293.9 718.9 286.7 719.8 280.1 720.55 273.35 720.55 271.1 720.4 268.85 719.95 265.55 719.2 261.95 716.65 256.25 714.85 252.2 711.85 248.75 710.35 247.4 709 245.9
M 659.2 259.55
L 680.05 259.55
Q 685.45 259.7 688.75 262.4 691.9 265.1 692.8 269 693.7 272.75 692.8 277.1 691.75 281.45 688.75 283.85 685.45 286.55 680.05 286.55
L 659.2 286.55 659.2 259.55
M 809.95 236.3
L 784 236.3 740.05 341.3 768.55 341.3 777.4 319.25 816.25 319.25 825.1 341.3 853.9 341.3 809.95 236.3
M 807.7 297.8
L 785.8 297.8 796.6 269.9 807.7 297.8
M 1253.35 234.5
L 1236.4 234.5 1236.4 276.95 1180.15 276.95 1180.15 234.5 1163.2 234.5 1163.2 342.05 1180.15 342.05 1180.15 292.55 1236.4 292.55 1236.4 342.05 1253.35 342.05 1253.35 234.5
M 978.4 276.95
L 978.4 250.1 1038.25 250.1 1038.25 234.5 961.45 234.5 961.45 342.05 1040.05 342.05 1040.05 326.6 978.4 326.6 978.4 292.55 1027 292.55 1027 276.95 978.4 276.95
M 1126.45 234.2
Q 1119.25 232.55 1110.85 232.55 1098.55 232.55 1088.35 236.45 1078.15 240.2 1070.05 248.3 1061.95 256.1 1058.05 266.15 1054 276.2 1054 288.35 1054 312.5 1070.05 328.4 1086.55 344.15 1110.85 344.15 1120 344.15 1127.8 341.9 1135.75 339.8 1142.35 335.45
L 1142.35 318.5
Q 1136.2 323.45 1128.4 325.85 1120.75 328.25 1111.6 328.25 1102.9 328.25 1095.7 325.55 1088.5 322.85 1082.65 317 1077.1 311.3 1074.25 304.1 1071.4 296.9 1071.4 288.35 1071.4 279.8 1074.1 272.45 1076.95 265.4 1082.5 259.7 1088.35 254 1095.4 251.15 1102.45 248.3 1111 248.3 1118.95 248.3 1126.15 250.4 1133.5 252.5 1140.1 256.85
L 1140.1 239.6
Q 1133.8 236.15 1126.45 234.2 Z"/>
</g>
</defs>

<g transform="matrix( 0.480316162109375, 0, 0, 0.48040771484375, -52,-21.7) ">
<use xlink:href="#Layer0_0_FILL"/>
</g>
</svg>
